# Blender v2.91.0 OBJ File: ''
# www.blender.org
o Cone
v 0.000000 2.000000 -4.000000
v -2.828427 2.000000 -2.828427
v -4.000000 2.000000 0.000000
v -2.828427 2.000000 2.828427
v 0.000001 2.000000 4.000000
v 2.828428 2.000000 2.828427
v 4.000000 2.000000 -0.000000
v 2.828428 2.000000 -2.828427
v -0.000000 -2.000000 0.000000
vt 0.250000 0.490000
vt 0.250000 0.250000
vt 0.419706 0.419706
vt 0.490000 0.250000
vt 0.419706 0.080294
vt 0.250000 0.010000
vt 0.080294 0.080294
vt 0.010000 0.250000
vt 0.580294 0.419706
vt 0.919706 0.419706
vt 0.919706 0.080294
vt 0.080294 0.419706
vt 0.750000 0.490000
vt 0.990000 0.250000
vt 0.750000 0.010000
vt 0.580294 0.080294
vt 0.510000 0.250000
vn -0.2811 -0.6786 -0.6786
vn -0.6786 -0.6786 -0.2811
vn -0.6786 -0.6786 0.2811
vn -0.2811 -0.6786 0.6786
vn 0.2811 -0.6786 0.6786
vn 0.6786 -0.6786 0.2811
vn 0.0000 1.0000 0.0000
vn 0.6786 -0.6786 -0.2811
vn 0.2811 -0.6786 -0.6786
s off
f 1/1/1 9/2/1 2/3/1
f 2/3/2 9/2/2 3/4/2
f 3/4/3 9/2/3 4/5/3
f 4/5/4 9/2/4 5/6/4
f 5/6/5 9/2/5 6/7/5
f 6/7/6 9/2/6 7/8/6
f 8/9/7 2/10/7 4/11/7
f 7/8/8 9/2/8 8/12/8
f 8/12/9 9/2/9 1/1/9
f 8/9/7 1/13/7 2/10/7
f 2/10/7 3/14/7 4/11/7
f 4/11/7 5/15/7 6/16/7
f 6/16/7 7/17/7 4/11/7
f 7/17/7 8/9/7 4/11/7
